<svg width="187" height="45" viewBox="0 0 187 45" fill="none" xmlns="http://www.w3.org/2000/svg">
<path d="M15.1091 38.896L2.14906 8.65598C0.805057 5.77598 0.133057 3.85599 0.133057 2.89599C0.133057 1.74399 0.517057 1.07199 1.28506 0.879995C2.24506 0.495989 3.30106 0.303986 4.45306 0.303986H15.9731C17.8931 0.303986 19.3331 0.783985 20.2931 1.74398C21.4451 2.70398 22.5971 4.23999 23.7491 6.35199L36.4211 35.728C36.9971 37.264 37.3811 38.416 37.5731 39.184C37.7651 39.76 37.9571 40.336 38.1491 40.912C38.1491 42.448 37.8611 43.504 37.2851 44.08C36.7091 44.656 35.3651 44.944 33.2531 44.944H22.8851C19.6211 44.944 17.0291 42.928 15.1091 38.896Z" fill="white"/>
<path d="M89.3591 38.896L76.3991 8.65598C75.0551 5.77598 74.3831 3.85599 74.3831 2.89599C74.3831 1.74399 74.7671 1.07199 75.5351 0.879995C76.4951 0.495989 77.5511 0.303986 78.7031 0.303986H90.2231C92.1431 0.303986 93.5831 0.783985 94.5431 1.74398C95.6951 2.70398 96.8471 4.23999 97.9991 6.35199L110.671 35.728C111.247 37.264 111.631 38.416 111.823 39.184C112.015 39.76 112.207 40.336 112.399 40.912C112.399 42.448 112.111 43.504 111.535 44.08C110.959 44.656 109.615 44.944 107.503 44.944H97.1351C93.8711 44.944 91.2791 42.928 89.3591 38.896Z" fill="white"/>
<path d="M163.609 38.896L150.649 8.65598C149.305 5.77598 148.633 3.85599 148.633 2.89599C148.633 1.74399 149.017 1.07199 149.785 0.879995C150.745 0.495989 151.801 0.303986 152.953 0.303986H164.473C166.393 0.303986 167.833 0.783985 168.793 1.74398C169.945 2.70398 171.097 4.23999 172.249 6.35199L184.921 35.728C185.497 37.264 185.881 38.416 186.073 39.184C186.265 39.76 186.457 40.336 186.649 40.912C186.649 42.448 186.361 43.504 185.785 44.08C185.209 44.656 183.865 44.944 181.753 44.944H171.385C168.121 44.944 165.529 42.928 163.609 38.896Z" fill="white"/>
</svg>
