<svg id="Layer_1" data-name="Layer 1" xmlns="http://www.w3.org/2000/svg" viewBox="0 0 127.97 125.03"><defs><style>.cls-1{fill:none;opacity:0.95;}.cls-2{fill:#fff;}</style></defs><title>adobe-creative-suite-icons</title><g id="Premiere_Pro" data-name="Premiere Pro"><rect class="cls-1" x="5.09" y="5.62" width="118.07" height="114.59"/><path class="cls-2" d="M506.38,160V285h128V160ZM624.18,275.1H516.82v-105H624.18Z" transform="translate(-506.38 -159.98)"/><path class="cls-2" d="M540,195.54A85.5,85.5,0,0,1,555,194.41c7.22,0,12.51,1.53,16,4.41a15.27,15.27,0,0,1,5.29,12c0,5.13-1.6,9.38-4.65,12.27-3.93,3.93-10.1,5.77-17.08,5.77a27.85,27.85,0,0,1-4.81-.32v20.37H540Zm9.78,25.17a19.38,19.38,0,0,0,4.81.41c7.38,0,11.87-3.61,11.87-10,0-6-4.17-9.22-11-9.22a27.3,27.3,0,0,0-5.69.48Z" transform="translate(-506.38 -159.98)"/><path class="cls-2" d="M583.41,222.4c0-5.29-.08-9.06-.32-12.59h8.58l.32,7.46h.32c1.93-5.54,6.5-8.34,10.67-8.34a10.34,10.34,0,0,1,2.32.24v9.3a13.7,13.7,0,0,0-2.89-.32c-4.73,0-7.93,3-8.82,7.46a16.89,16.89,0,0,0-.32,3v20.21h-9.86Z" transform="translate(-506.38 -159.98)"/></g></svg>