<?xml version="1.0" encoding="UTF-8"?>
<svg xmlns="http://www.w3.org/2000/svg" xmlns:xlink="http://www.w3.org/1999/xlink" width="48pt" height="48pt" viewBox="0 0 48 48" version="1.1">
<g id="surface372930">
<path style=" stroke:none;fill-rule:nonzero;fill:rgb(100%,100%,100%);fill-opacity:1;" d="M 24 44 L 5 36 L 5 10 L 24 16 Z M 24 44 "/>
<path style=" stroke:none;fill-rule:nonzero;fill:rgb(80%,80%,80%);fill-opacity:1;" d="M 24 44 L 43 36 L 43 10 L 24 16 Z M 24 44 "/>
<path style=" stroke:none;fill-rule:nonzero;fill:rgb(92.54902%,94.117647%,94.509804%);fill-opacity:1;" d="M 5 10 L 24 4 L 43 10 L 24 16 Z M 5 10 "/>
<path style=" stroke:none;fill-rule:nonzero;fill:rgb(8.235294%,31.764706%,46.666667%);fill-opacity:1;" d="M 36.539062 29.214844 L 38.183594 16.632812 L 40 16 L 37.5625 32.738281 L 35.773438 33.476562 L 33.695312 22.546875 L 31.539062 35.222656 L 29.652344 36 L 27 20.515625 L 28.988281 19.824219 L 30.75 31.488281 L 32.886719 18.472656 L 34.488281 17.914062 Z M 16.855469 31.101562 C 16.855469 30.777344 16.820312 30.476562 16.746094 30.199219 C 16.671875 29.917969 16.539062 29.636719 16.347656 29.355469 C 16.152344 29.074219 15.890625 28.78125 15.554688 28.46875 C 15.21875 28.15625 14.785156 27.804688 14.261719 27.410156 C 13.691406 26.988281 13.164062 26.546875 12.6875 26.09375 C 12.207031 25.636719 11.796875 25.160156 11.453125 24.660156 C 11.113281 24.160156 10.84375 23.632812 10.652344 23.070312 C 10.457031 22.511719 10.363281 21.910156 10.363281 21.269531 C 10.363281 20.636719 10.460938 20.089844 10.664062 19.621094 C 10.863281 19.152344 11.148438 18.78125 11.515625 18.511719 C 11.882812 18.238281 12.324219 18.070312 12.839844 18.019531 C 13.359375 17.964844 13.933594 18.035156 14.570312 18.234375 C 15.25 18.445312 15.863281 18.769531 16.410156 19.203125 C 16.960938 19.636719 17.425781 20.140625 17.804688 20.710938 C 18.1875 21.28125 18.480469 21.898438 18.6875 22.5625 C 18.890625 23.226562 18.992188 23.894531 18.992188 24.570312 L 16.855469 23.863281 C 16.855469 23.472656 16.808594 23.097656 16.71875 22.738281 C 16.625 22.382812 16.484375 22.054688 16.292969 21.753906 C 16.101562 21.453125 15.863281 21.191406 15.574219 20.964844 C 15.285156 20.738281 14.945312 20.566406 14.550781 20.4375 C 14.183594 20.320312 13.863281 20.273438 13.59375 20.296875 C 13.328125 20.316406 13.105469 20.398438 12.925781 20.535156 C 12.75 20.675781 12.617188 20.863281 12.535156 21.105469 C 12.449219 21.347656 12.410156 21.621094 12.410156 21.933594 C 12.410156 22.519531 12.617188 23.078125 13.035156 23.609375 C 13.453125 24.144531 14.09375 24.722656 14.960938 25.351562 C 15.640625 25.847656 16.234375 26.339844 16.738281 26.835938 C 17.242188 27.332031 17.664062 27.84375 18 28.371094 C 18.339844 28.898438 18.589844 29.445312 18.753906 30.019531 C 18.917969 30.59375 19 31.199219 19 31.847656 C 19 32.527344 18.894531 33.105469 18.6875 33.574219 C 18.480469 34.042969 18.1875 34.394531 17.804688 34.636719 C 17.421875 34.875 16.964844 34.996094 16.425781 35 C 15.890625 35.003906 15.296875 34.882812 14.640625 34.636719 C 14.0625 34.421875 13.496094 34.105469 12.9375 33.691406 C 12.382812 33.28125 11.886719 32.785156 11.449219 32.210938 C 11.011719 31.632812 10.660156 30.988281 10.398438 30.273438 C 10.132812 29.5625 10 28.789062 10 27.957031 L 12.039062 28.679688 C 12.039062 29.179688 12.105469 29.628906 12.238281 30.035156 C 12.371094 30.441406 12.554688 30.800781 12.785156 31.113281 C 13.019531 31.425781 13.292969 31.691406 13.609375 31.914062 C 13.929688 32.132812 14.273438 32.3125 14.640625 32.445312 C 15.371094 32.714844 15.925781 32.71875 16.296875 32.460938 C 16.667969 32.203125 16.855469 31.75 16.855469 31.101562 Z M 16.855469 31.101562 "/>
</g>
</svg>
