<svg width="155" height="155" fill="none" xmlns="http://www.w3.org/2000/svg"><path d="M97.008 40.1693c1.9888 1.9888 3.791 3.9651 5.407 5.9289 1.591 1.939 2.983 3.9526 4.176 6.0407 1.169 2.0633 2.113 4.2509 2.834 6.5628.721 2.2622 1.181 4.7108 1.38 7.3458.472 5.8916-.348 11.5595-2.461 17.0036-2.113 5.3944-5.382 10.304-9.8071 14.7289-2.7594 2.759-5.7673 5.046-9.0238 6.861-3.2317 1.79-6.5877 3.132-10.0679 4.027-3.4803.845-7.0103 1.243-10.59 1.194-3.5548-.075-7.0351-.572-10.4407-1.492-3.4306-.945-6.7244-2.324-9.8815-4.139-3.1819-1.84-6.0904-4.077-8.7255-6.712-2.7593-2.7593-5.0836-5.7548-6.9729-8.9865-1.8644-3.2565-3.2814-6.6125-4.2509-10.0679-.9695-3.5051-1.4791-7.0475-1.5288-10.6272-.0249-3.6046.4101-7.147 1.3051-10.6272.8949-3.4803 2.2746-6.8487 4.139-10.1052 1.8395-3.2814 4.1639-6.3266 6.9729-9.1357 2.7594-2.7593 5.6927-5.0712 8.8001-6.9356 3.1074-1.8645 6.339-3.2814 9.695-4.2509 3.3311-.9944 6.7616-1.5413 10.2916-1.6407 3.53-.0994 7.0973.2361 10.7018 1.0068l-2.0508 8.017c-6.0408-1.2181-11.7956-1.0814-17.2646.4102-5.4938 1.4667-10.5029 4.4622-15.0273 8.9865-2.1627 2.1627-3.9525 4.5492-5.3695 7.1594-1.3921 2.5853-2.4113 5.2949-3.0577 8.1289-.6214 2.809-.8949 5.6678-.8203 8.5763.0994 2.8837.5469 5.7424 1.3424 8.5764.8203 2.809 1.9763 5.5062 3.4678 8.0916 1.4915 2.5853 3.3187 4.9593 5.4814 7.1221 2.2125 2.2124 4.6238 4.0768 7.234 5.5932s5.3198 2.6848 8.1289 3.5055c2.809.77 5.6678 1.193 8.5763 1.267 2.9334.05 5.8046-.261 8.6136-.932 2.834-.6958 5.5685-1.7647 8.2035-3.2066 2.6102-1.4666 5.034-3.3186 7.2713-5.5559 2.7593-2.7594 4.9469-5.8419 6.5626-9.2476 1.641-3.4305 2.585-6.9356 2.834-10.5153.274-3.6046-.162-7.1719-1.305-10.7018-1.168-3.5549-3.1447-6.8487-5.9289-9.8815L76.835 70.5594l-5.1085-5.1085L97.008 40.1693z" fill="#353535"/><path d="M34.584 110.168c4.1885 0 7.584-3.395 7.584-7.584 0-4.1885-3.3955-7.584-7.584-7.584C30.3955 95 27 98.3955 27 102.584c0 4.189 3.3955 7.584 7.584 7.584z" fill="url(#paint0_linear)"/><defs><linearGradient id="paint0_linear" x1="34.584" y1="95" x2="42" y2="103" gradientUnits="userSpaceOnUse"><stop stop-color="#F1C424"/><stop offset="1" stop-color="#FF005C"/></linearGradient></defs></svg>