<svg width="386" height="133" viewBox="0 0 386 133" fill="none" xmlns="http://www.w3.org/2000/svg">
<path d="M63.88 53.416V53.704C63.88 54.568 63.376 55 62.368 55H48.544C47.344 55 46.72 54.472 46.672 53.416L44.656 32.464L40.12 53.416C40.024 53.8 39.832 54.16 39.544 54.496C39.256 54.832 38.92 55 38.536 55H25.72C25.336 55 24.976 54.856 24.64 54.568C24.304 54.232 24.112 53.848 24.064 53.416L19.456 32.608L17.512 53.416C17.464 54.472 16.864 55 15.712 55H1.888C0.88 55 0.376 54.544 0.376 53.632V53.416L5.272 3.16C5.368 2.728 5.56 2.368 5.848 2.08C6.136 1.744 6.544 1.576 7.072 1.576H23.848C24.856 1.576 25.576 2.104 26.008 3.16L32.056 28.288L38.248 3.16C38.536 2.104 39.256 1.576 40.408 1.576H57.112C57.64 1.576 58.048 1.744 58.336 2.08C58.672 2.368 58.888 2.728 58.984 3.16L63.88 53.416ZM102.469 3.16C102.469 2.728 102.589 2.368 102.829 2.08C103.117 1.744 103.525 1.576 104.053 1.576H117.949C118.621 1.576 119.077 1.744 119.317 2.08C119.557 2.416 119.677 2.776 119.677 3.16V33.76C119.677 37.936 119.005 41.44 117.661 44.272C116.317 47.104 114.517 49.384 112.261 51.112C110.053 52.792 107.509 53.992 104.629 54.712C101.797 55.432 98.8692 55.792 95.8452 55.792C92.8212 55.792 89.8692 55.432 86.9892 54.712C84.1092 53.992 81.5412 52.792 79.2852 51.112C77.0772 49.384 75.3012 47.104 73.9572 44.272C72.6132 41.44 71.9412 37.936 71.9412 33.76V3.16C72.0372 2.152 72.4692 1.624 73.2372 1.576H87.4212C87.8052 1.576 88.1892 1.72 88.5732 2.008C89.0052 2.296 89.2212 2.68 89.2212 3.16V32.752C89.2212 34 89.4372 35.056 89.8692 35.92C90.3012 36.736 90.8292 37.408 91.4532 37.936C92.1252 38.416 92.8452 38.776 93.6132 39.016C94.3812 39.208 95.1252 39.304 95.8452 39.304C96.5652 39.304 97.3092 39.16 98.0772 38.872C98.8932 38.584 99.6132 38.176 100.237 37.648C100.909 37.072 101.437 36.376 101.821 35.56C102.253 34.744 102.469 33.808 102.469 32.752V3.16ZM174.537 8.56C174.777 8.8 174.969 9.04 175.113 9.28C175.257 9.472 175.329 9.712 175.329 10C175.329 10.288 175.209 10.624 174.969 11.008L164.673 20.44C164.481 20.728 164.241 20.872 163.953 20.872C163.713 20.872 163.449 20.728 163.161 20.44C162.249 19.48 161.193 18.712 159.993 18.136C158.793 17.56 157.257 17.272 155.385 17.272C153.897 17.272 152.505 17.584 151.209 18.208C149.961 18.784 148.881 19.576 147.969 20.584C147.057 21.592 146.337 22.768 145.809 24.112C145.281 25.408 145.017 26.776 145.017 28.216C145.017 29.56 145.257 30.904 145.737 32.248C146.217 33.544 146.913 34.72 147.825 35.776C148.737 36.784 149.817 37.6 151.065 38.224C152.313 38.848 153.705 39.16 155.241 39.16C156.825 39.16 158.409 38.824 159.993 38.152V31.96C159.993 31.528 160.113 31.168 160.353 30.88C160.641 30.544 161.049 30.376 161.577 30.376H173.673C174.057 30.376 174.441 30.52 174.825 30.808C175.257 31.096 175.473 31.48 175.473 31.96V46.432C175.473 46.912 175.305 47.32 174.969 47.656L174.681 47.944C171.945 50.68 168.969 52.672 165.753 53.92C162.537 55.168 159.273 55.792 155.961 55.792C152.169 55.792 148.569 55.12 145.161 53.776C141.801 52.432 138.849 50.56 136.305 48.16C133.761 45.712 131.721 42.808 130.185 39.448C128.697 36.04 127.953 32.32 127.953 28.288C127.953 24.784 128.625 21.376 129.969 18.064C131.361 14.752 133.257 11.824 135.657 9.28C138.105 6.736 140.985 4.696 144.297 3.16C147.657 1.576 151.281 0.783998 155.169 0.783998C157.521 0.783998 159.609 0.999999 161.433 1.432C163.305 1.816 164.985 2.368 166.473 3.088C168.009 3.76 169.425 4.576 170.721 5.536C172.017 6.448 173.289 7.456 174.537 8.56ZM225.512 1.576C225.944 1.576 226.304 1.72 226.592 2.008C226.928 2.248 227.096 2.632 227.096 3.16V14.68C227.096 15.064 226.952 15.472 226.664 15.904C226.376 16.288 225.992 16.48 225.512 16.48H212.624V53.416C212.624 54.472 212.048 55 210.896 55H196.928C195.872 55 195.344 54.472 195.344 53.416V16.48H182.528C181.472 16.48 180.944 15.88 180.944 14.68V3.16C180.944 2.104 181.472 1.576 182.528 1.576H225.512ZM276.193 53.416C276.529 54.472 276.217 55 275.257 55H261.433C260.281 55 259.489 54.472 259.057 53.416L257.113 47.224H241.705L239.761 53.416C239.329 54.472 238.537 55 237.385 55H223.633C222.625 55 222.289 54.472 222.625 53.416L240.481 3.16C240.577 2.776 240.793 2.416 241.129 2.08C241.513 1.744 241.897 1.576 242.281 1.576H256.537C256.921 1.576 257.281 1.744 257.617 2.08C258.001 2.416 258.241 2.776 258.337 3.16L276.193 53.416ZM246.025 33.976H252.793L249.409 20.368L246.025 33.976ZM284.31 3.16C284.31 2.728 284.43 2.368 284.67 2.08C284.958 1.744 285.366 1.576 285.894 1.576H311.022C313.134 1.576 315.126 2.008 316.998 2.872C318.87 3.688 320.502 4.84 321.894 6.328C323.286 7.768 324.39 9.448 325.206 11.368C326.022 13.288 326.43 15.328 326.43 17.488C326.43 21.04 325.35 24.088 323.19 26.632C324.87 28.216 326.214 30.112 327.222 32.32C328.278 34.48 328.806 36.784 328.806 39.232C328.806 41.392 328.374 43.432 327.51 45.352C326.694 47.272 325.566 48.952 324.126 50.392C322.686 51.832 321.006 52.96 319.086 53.776C317.214 54.592 315.222 55 313.11 55H285.894C284.838 55 284.31 54.472 284.31 53.416V3.16ZM310.806 37.936C310.806 36.928 310.422 35.968 309.654 35.056C308.886 34.144 307.95 33.688 306.846 33.688H300.582V42.184H306.846C307.95 42.184 308.886 41.752 309.654 40.888C310.422 40.024 310.806 39.04 310.806 37.936ZM309.438 17.848C309.438 16.792 309.078 15.904 308.358 15.184C307.638 14.464 306.702 14.104 305.55 14.104H300.582V21.448H305.55C306.654 21.448 307.566 21.112 308.286 20.44C309.054 19.768 309.438 18.904 309.438 17.848ZM385.459 53.416C385.795 54.472 385.483 55 384.523 55H370.699C369.547 55 368.755 54.472 368.323 53.416L366.379 47.224H350.971L349.027 53.416C348.595 54.472 347.803 55 346.651 55H332.899C331.891 55 331.555 54.472 331.891 53.416L349.747 3.16C349.843 2.776 350.059 2.416 350.395 2.08C350.779 1.744 351.163 1.576 351.547 1.576H365.803C366.187 1.576 366.547 1.744 366.883 2.08C367.267 2.416 367.507 2.776 367.603 3.16L385.459 53.416ZM355.291 33.976H362.059L358.675 20.368L355.291 33.976ZM48.256 85.56C48.496 85.8 48.688 86.04 48.832 86.28C48.976 86.472 49.048 86.712 49.048 87C49.048 87.288 48.928 87.624 48.688 88.008L38.392 97.44C38.2 97.728 37.96 97.872 37.672 97.872C37.432 97.872 37.168 97.728 36.88 97.44C35.968 96.48 34.912 95.712 33.712 95.136C32.512 94.56 30.976 94.272 29.104 94.272C27.616 94.272 26.224 94.584 24.928 95.208C23.68 95.784 22.6 96.576 21.688 97.584C20.776 98.592 20.056 99.768 19.528 101.112C19 102.408 18.736 103.776 18.736 105.216C18.736 106.56 18.976 107.904 19.456 109.248C19.936 110.544 20.632 111.72 21.544 112.776C22.456 113.784 23.536 114.6 24.784 115.224C26.032 115.848 27.424 116.16 28.96 116.16C30.544 116.16 32.128 115.824 33.712 115.152V108.96C33.712 108.528 33.832 108.168 34.072 107.88C34.36 107.544 34.768 107.376 35.296 107.376H47.392C47.776 107.376 48.16 107.52 48.544 107.808C48.976 108.096 49.192 108.48 49.192 108.96V123.432C49.192 123.912 49.024 124.32 48.688 124.656L48.4 124.944C45.664 127.68 42.688 129.672 39.472 130.92C36.256 132.168 32.992 132.792 29.68 132.792C25.888 132.792 22.288 132.12 18.88 130.776C15.52 129.432 12.568 127.56 10.024 125.16C7.48 122.712 5.44 119.808 3.904 116.448C2.416 113.04 1.672 109.32 1.672 105.288C1.672 101.784 2.344 98.376 3.688 95.064C5.08 91.752 6.976 88.824 9.376 86.28C11.824 83.736 14.704 81.696 18.016 80.16C21.376 78.576 25 77.784 28.888 77.784C31.24 77.784 33.328 78 35.152 78.432C37.024 78.816 38.704 79.368 40.192 80.088C41.728 80.76 43.144 81.576 44.44 82.536C45.736 83.448 47.008 84.456 48.256 85.56ZM107.654 130.416C107.99 131.472 107.678 132 106.718 132H92.8943C91.7423 132 90.9503 131.472 90.5183 130.416L88.5743 124.224H73.1663L71.2223 130.416C70.7903 131.472 69.9983 132 68.8463 132H55.0943C54.0863 132 53.7503 131.472 54.0863 130.416L71.9423 80.16C72.0383 79.776 72.2543 79.416 72.5903 79.08C72.9743 78.744 73.3583 78.576 73.7423 78.576H87.9983C88.3823 78.576 88.7423 78.744 89.0783 79.08C89.4623 79.416 89.7023 79.776 89.7983 80.16L107.654 130.416ZM77.4863 110.976H84.2543L80.8703 97.368L77.4863 110.976ZM115.699 80.16C115.699 79.728 115.819 79.368 116.059 79.08C116.347 78.744 116.755 78.576 117.283 78.576H141.331C143.827 78.576 146.131 79.056 148.243 80.016C150.355 80.928 152.179 82.176 153.715 83.76C155.299 85.344 156.523 87.192 157.387 89.304C158.299 91.416 158.755 93.672 158.755 96.072C158.755 99.288 157.987 102.264 156.451 105C154.963 107.688 152.923 109.8 150.331 111.336L160.627 130.416C160.771 130.896 160.699 131.28 160.411 131.568C160.123 131.856 159.787 132 159.403 132H144.787C144.259 132 143.779 131.856 143.347 131.568C142.963 131.232 142.723 130.848 142.627 130.416L134.995 115.152H132.907V130.416C132.907 131.472 132.331 132 131.179 132H117.283C116.227 132 115.699 131.472 115.699 130.416V80.16ZM142.267 96.432C142.267 95.376 141.883 94.416 141.115 93.552C140.347 92.64 139.411 92.184 138.307 92.184H132.763V100.68H138.307C139.411 100.68 140.347 100.248 141.115 99.384C141.883 98.52 142.267 97.536 142.267 96.432ZM182.611 105.216C182.611 106.752 182.899 108.192 183.475 109.536C184.099 110.88 184.915 112.056 185.923 113.064C186.931 114.024 188.107 114.792 189.451 115.368C190.795 115.896 192.235 116.16 193.771 116.16C195.307 116.16 196.747 115.896 198.091 115.368C199.483 114.792 200.683 114.024 201.691 113.064C202.699 112.056 203.491 110.88 204.067 109.536C204.691 108.192 205.003 106.752 205.003 105.216C205.003 103.68 204.691 102.264 204.067 100.968C203.491 99.624 202.699 98.472 201.691 97.512C200.683 96.504 199.483 95.712 198.091 95.136C196.747 94.56 195.307 94.272 193.771 94.272C192.235 94.272 190.795 94.56 189.451 95.136C188.107 95.712 186.931 96.504 185.923 97.512C184.915 98.472 184.099 99.624 183.475 100.968C182.899 102.264 182.611 103.68 182.611 105.216ZM165.475 105.36C165.475 101.52 166.219 97.944 167.707 94.632C169.243 91.272 171.283 88.344 173.827 85.848C176.419 83.352 179.419 81.384 182.827 79.944C186.283 78.504 189.907 77.784 193.699 77.784C197.491 77.784 201.091 78.504 204.499 79.944C207.907 81.384 210.907 83.352 213.499 85.848C216.091 88.344 218.131 91.272 219.619 94.632C221.155 97.944 221.923 101.52 221.923 105.36C221.923 109.152 221.155 112.728 219.619 116.088C218.131 119.4 216.091 122.304 213.499 124.8C210.907 127.248 207.907 129.192 204.499 130.632C201.091 132.072 197.491 132.792 193.699 132.792C189.907 132.792 186.283 132.072 182.827 130.632C179.419 129.192 176.419 127.248 173.827 124.8C171.283 122.304 169.243 119.4 167.707 116.088C166.219 112.728 165.475 109.152 165.475 105.36ZM243.923 105.216C243.923 106.752 244.211 108.192 244.787 109.536C245.411 110.88 246.227 112.056 247.235 113.064C248.243 114.024 249.419 114.792 250.763 115.368C252.107 115.896 253.547 116.16 255.083 116.16C256.619 116.16 258.059 115.896 259.403 115.368C260.795 114.792 261.995 114.024 263.003 113.064C264.011 112.056 264.803 110.88 265.379 109.536C266.003 108.192 266.315 106.752 266.315 105.216C266.315 103.68 266.003 102.264 265.379 100.968C264.803 99.624 264.011 98.472 263.003 97.512C261.995 96.504 260.795 95.712 259.403 95.136C258.059 94.56 256.619 94.272 255.083 94.272C253.547 94.272 252.107 94.56 250.763 95.136C249.419 95.712 248.243 96.504 247.235 97.512C246.227 98.472 245.411 99.624 244.787 100.968C244.211 102.264 243.923 103.68 243.923 105.216ZM226.787 105.36C226.787 101.52 227.531 97.944 229.019 94.632C230.555 91.272 232.595 88.344 235.139 85.848C237.731 83.352 240.731 81.384 244.139 79.944C247.595 78.504 251.219 77.784 255.011 77.784C258.803 77.784 262.403 78.504 265.811 79.944C269.219 81.384 272.219 83.352 274.811 85.848C277.403 88.344 279.443 91.272 280.931 94.632C282.467 97.944 283.235 101.52 283.235 105.36C283.235 109.152 282.467 112.728 280.931 116.088C279.443 119.4 277.403 122.304 274.811 124.8C272.219 127.248 269.219 129.192 265.811 130.632C262.403 132.072 258.803 132.792 255.011 132.792C251.219 132.792 247.595 132.072 244.139 130.632C240.731 129.192 237.731 127.248 235.139 124.8C232.595 122.304 230.555 119.4 229.019 116.088C227.531 112.728 226.787 109.152 226.787 105.36ZM328.871 78.576C329.303 78.576 329.663 78.72 329.951 79.008C330.287 79.248 330.455 79.632 330.455 80.16V91.68C330.455 92.064 330.311 92.472 330.023 92.904C329.735 93.288 329.351 93.48 328.871 93.48H315.983V130.416C315.983 131.472 315.407 132 314.255 132H300.287C299.231 132 298.703 131.472 298.703 130.416V93.48H285.887C284.831 93.48 284.303 92.88 284.303 91.68V80.16C284.303 79.104 284.831 78.576 285.887 78.576H328.871Z" fill="url(#paint0_linear)"/>
<defs>
<linearGradient id="paint0_linear" x1="-2" y1="-9" x2="321.517" y2="235.362" gradientUnits="userSpaceOnUse">
<stop stop-color="#FFF500"/>
<stop offset="1" stop-color="#FF0099"/>
</linearGradient>
</defs>
</svg>
