<svg width="947" height="324" viewBox="0 0 947 324" fill="none" xmlns="http://www.w3.org/2000/svg">
<circle cx="114" cy="162" r="104" stroke="url(#paint0_linear_308_85)" stroke-width="20"/>
<path d="M258.936 229.004C256.352 231.892 253.844 234.324 251.412 236.3C249.132 238.276 246.776 239.872 244.344 241.088C242.064 242.152 239.556 242.912 236.82 243.368C234.084 243.824 230.968 244.052 227.472 244.052C219.72 244.052 212.88 242.532 206.952 239.492C201.024 236.452 196.236 232.348 192.588 227.18C188.94 222.012 186.432 215.932 185.064 208.94C183.848 201.948 184.076 194.5 185.748 186.596C187.42 178.54 190.308 171.092 194.412 164.252C198.668 157.26 203.76 151.18 209.688 146.012C215.616 140.692 222.228 136.588 229.524 133.7C236.82 130.66 244.572 129.14 252.78 129.14C258.556 129.14 262.888 130.128 265.776 132.104C268.664 133.928 271.172 136.208 273.3 138.944L286.068 78.524C286.372 76.852 287.132 75.484 288.348 74.42C289.564 73.204 291.16 72.596 293.136 72.596H321.408C322.776 72.596 324.068 73.204 325.284 74.42C326.5 75.484 326.88 76.852 326.424 78.524L293.136 236.072C292.224 239.568 290.248 241.544 287.208 242H265.092C262.508 242 260.912 240.632 260.304 237.896C259.848 235.008 259.392 232.044 258.936 229.004ZM227.244 186.824C226.028 192.904 226.788 197.996 229.524 202.1C232.26 206.052 236.516 208.028 242.292 208.028C248.068 208.028 253.236 206.052 257.796 202.1C262.508 198.148 265.624 193.284 267.144 187.508V186.824C268.36 181.048 267.448 176.032 264.408 171.776C261.52 167.52 257.188 165.392 251.412 165.392C245.484 165.392 240.24 167.52 235.68 171.776C231.272 176.032 228.46 181.048 227.244 186.824ZM400.545 229.004C397.961 231.892 395.453 234.324 393.021 236.3C390.741 238.276 388.385 239.872 385.953 241.088C383.673 242.152 381.165 242.912 378.429 243.368C375.693 243.824 372.577 244.052 369.081 244.052C361.329 244.052 354.489 242.532 348.561 239.492C342.633 236.452 337.845 232.348 334.197 227.18C330.549 222.012 328.041 215.932 326.673 208.94C325.457 201.948 325.685 194.5 327.357 186.596C329.029 178.54 331.917 171.092 336.021 164.252C340.277 157.26 345.369 151.18 351.297 146.012C357.225 140.692 363.837 136.588 371.133 133.7C378.429 130.66 386.181 129.14 394.389 129.14C400.165 129.14 404.497 130.128 407.385 132.104C410.273 133.928 412.781 136.208 414.909 138.944L427.677 78.524C427.981 76.852 428.741 75.484 429.957 74.42C431.173 73.204 432.769 72.596 434.745 72.596H463.017C464.385 72.596 465.677 73.204 466.893 74.42C468.109 75.484 468.489 76.852 468.033 78.524L434.745 236.072C433.833 239.568 431.857 241.544 428.817 242H406.701C404.117 242 402.521 240.632 401.913 237.896C401.457 235.008 401.001 232.044 400.545 229.004ZM368.853 186.824C367.637 192.904 368.397 197.996 371.133 202.1C373.869 206.052 378.125 208.028 383.901 208.028C389.677 208.028 394.845 206.052 399.405 202.1C404.117 198.148 407.233 193.284 408.753 187.508V186.824C409.969 181.048 409.057 176.032 406.017 171.776C403.129 167.52 398.797 165.392 393.021 165.392C387.093 165.392 381.849 167.52 377.289 171.776C372.881 176.032 370.069 181.048 368.853 186.824Z" fill="white"/>
<path d="M464.96 123.668H469.976L483.656 235.16L542.48 123.668H547.496L558.896 235.16L620 123.668H625.016L559.58 242H555.476L543.848 129.596L484.34 242H480.008L464.96 123.668ZM667.483 244.28C657.907 244.28 649.927 242.076 643.543 237.668C637.159 233.26 632.371 227.332 629.179 219.884C625.987 212.436 624.391 204.228 624.391 195.26C624.391 184.924 626.215 175.348 629.863 166.532C633.663 157.564 638.755 149.736 645.139 143.048C651.523 136.36 658.743 131.192 666.799 127.544C674.855 123.744 683.139 121.844 691.651 121.844C701.227 121.844 709.131 124.124 715.363 128.684C721.747 133.092 726.535 139.02 729.727 146.468C732.919 153.916 734.515 162.2 734.515 171.32C734.515 181.504 732.691 191.004 729.043 199.82C725.395 208.636 720.379 216.388 713.995 223.076C707.763 229.764 700.619 235.008 692.563 238.808C684.507 242.456 676.147 244.28 667.483 244.28ZM668.167 239.72C676.071 239.72 683.671 238.048 690.967 234.704C698.415 231.208 705.027 226.42 710.803 220.34C716.731 214.108 721.367 206.888 724.711 198.68C728.207 190.472 729.955 181.656 729.955 172.232C729.955 163.872 728.511 156.272 725.623 149.432C722.735 142.44 718.403 136.892 712.627 132.788C706.851 128.532 699.555 126.404 690.739 126.404C682.835 126.404 675.159 128.152 667.711 131.648C660.415 135.144 653.803 140.008 647.875 146.24C642.099 152.472 637.463 159.692 633.967 167.9C630.623 176.108 628.951 185 628.951 194.576C628.951 202.936 630.395 210.536 633.283 217.376C636.171 224.216 640.503 229.688 646.279 233.792C652.207 237.744 659.503 239.72 668.167 239.72ZM774.311 123.668H778.871L772.487 154.22C778.719 144.948 785.863 137.804 793.919 132.788C801.975 127.62 810.107 124.656 818.315 123.896C819.075 123.744 819.835 123.668 820.595 123.668C821.355 123.668 822.039 123.668 822.647 123.668L821.735 128.228C811.095 128.684 801.139 132.408 791.867 139.4C782.595 146.24 775.223 155.512 769.751 167.216L753.791 242H749.231L774.311 123.668ZM861.856 244.28C852.888 244.28 845.212 241.924 838.828 237.212C832.444 232.348 827.58 226.116 824.236 218.516C820.892 210.764 819.22 202.556 819.22 193.892C819.22 184.772 821.044 175.956 824.692 167.444C828.34 158.932 833.28 151.256 839.512 144.416C845.744 137.424 852.812 131.952 860.716 128C868.772 123.896 877.132 121.844 885.796 121.844C896.132 121.844 904.568 124.808 911.104 130.736C917.792 136.512 922.58 143.352 925.468 151.256L941.428 75.56H946.216L912.7 232.196C912.548 232.652 912.472 233.108 912.472 233.564C912.472 233.868 912.472 234.172 912.472 234.476C912.472 236.452 913.384 237.44 915.208 237.44L914.296 242C913.688 242 913.156 242 912.7 242C912.244 241.848 911.864 241.696 911.56 241.544C910.344 241.088 909.432 240.328 908.824 239.264C908.216 238.048 907.912 236.68 907.912 235.16C907.912 234.856 907.912 234.4 907.912 233.792C908.064 233.032 908.368 231.436 908.824 229.004C909.432 226.572 910.268 222.696 911.332 217.376C904.948 225.28 897.196 231.74 888.076 236.756C879.108 241.772 870.368 244.28 861.856 244.28ZM862.768 239.72C867.176 239.72 872.04 238.808 877.36 236.984C882.68 235.008 887.924 232.348 893.092 229.004C898.26 225.508 902.744 221.632 906.544 217.376C910.344 212.968 912.928 208.332 914.296 203.468L923.416 160.832C922.656 154.448 920.3 148.672 916.348 143.504C912.548 138.336 907.836 134.232 902.212 131.192C896.74 128 890.964 126.404 884.884 126.404C876.524 126.404 868.62 128.38 861.172 132.332C853.876 136.284 847.416 141.528 841.792 148.064C836.168 154.6 831.76 161.82 828.568 169.724C825.376 177.628 823.78 185.532 823.78 193.436C823.78 201.644 825.376 209.32 828.568 216.464C831.912 223.456 836.472 229.08 842.248 233.336C848.176 237.592 855.016 239.72 862.768 239.72Z" fill="white"/>
<defs>
<linearGradient id="paint0_linear_308_85" x1="0" y1="276" x2="228" y2="48" gradientUnits="userSpaceOnUse">
<stop stop-color="#FF9900"/>
<stop offset="1" stop-color="#FF002E"/>
</linearGradient>
</defs>
</svg>
