<svg width="1448" height="331" viewBox="0 0 1448 331" fill="none" xmlns="http://www.w3.org/2000/svg">
<circle cx="114" cy="165" r="104" stroke="url(#paint0_linear_212_384)" stroke-width="20"/>
<path d="M175.924 191.596C177.596 183.692 180.408 176.32 184.36 169.48C188.464 162.488 193.404 156.408 199.18 151.24C205.108 145.92 211.796 141.74 219.244 138.7C226.692 135.66 234.596 134.14 242.956 134.14C246.604 134.14 249.872 134.9 252.76 136.42C255.648 137.788 257.776 139.308 259.144 140.98L271.456 82.612C271.76 81.244 272.444 80.104 273.508 79.192C274.572 78.128 275.94 77.596 277.612 77.596H316.828C318.044 77.596 319.108 78.052 320.02 78.964C321.084 79.724 321.464 80.94 321.16 82.612L287.644 240.844C287.188 243.276 286.048 244.948 284.224 245.86C283.464 246.468 282.628 246.848 281.716 247C280.804 247.152 280.044 247.228 279.436 247.228H254.584C252 247.228 250.404 246.392 249.796 244.72C249.34 243.048 248.884 240.008 248.428 235.6C247.06 236.816 245.464 238.184 243.64 239.704C241.816 241.224 239.612 242.668 237.028 244.036C234.596 245.404 231.708 246.544 228.364 247.456C225.02 248.52 221.068 249.052 216.508 249.052C209.06 249.052 202.448 247.532 196.672 244.492C190.896 241.452 186.184 237.348 182.536 232.18C178.888 226.86 176.456 220.704 175.24 213.712C174.024 206.72 174.252 199.348 175.924 191.596ZM252.076 192.28C252.836 188.024 252.304 184.452 250.48 181.564C248.808 178.676 245.92 177.232 241.816 177.232C237.712 177.232 234.064 178.676 230.872 181.564C227.68 184.452 225.704 188.024 224.944 192.28C224.032 196.688 224.488 200.26 226.312 202.996C228.288 205.732 231.328 207.1 235.432 207.1C239.536 207.1 243.108 205.732 246.148 202.996C249.188 200.26 251.164 196.688 252.076 192.28ZM321.541 191.596C323.213 183.692 326.025 176.32 329.977 169.48C334.081 162.488 339.021 156.408 344.797 151.24C350.725 145.92 357.413 141.74 364.861 138.7C372.309 135.66 380.213 134.14 388.573 134.14C392.221 134.14 395.489 134.9 398.377 136.42C401.265 137.788 403.393 139.308 404.761 140.98L417.073 82.612C417.377 81.244 418.061 80.104 419.125 79.192C420.189 78.128 421.557 77.596 423.229 77.596H462.445C463.661 77.596 464.725 78.052 465.637 78.964C466.701 79.724 467.081 80.94 466.777 82.612L433.261 240.844C432.805 243.276 431.665 244.948 429.841 245.86C429.081 246.468 428.245 246.848 427.333 247C426.421 247.152 425.661 247.228 425.053 247.228H400.201C397.617 247.228 396.021 246.392 395.413 244.72C394.957 243.048 394.501 240.008 394.045 235.6C392.677 236.816 391.081 238.184 389.257 239.704C387.433 241.224 385.229 242.668 382.645 244.036C380.213 245.404 377.325 246.544 373.981 247.456C370.637 248.52 366.685 249.052 362.125 249.052C354.677 249.052 348.065 247.532 342.289 244.492C336.513 241.452 331.801 237.348 328.153 232.18C324.505 226.86 322.073 220.704 320.857 213.712C319.641 206.72 319.869 199.348 321.541 191.596ZM397.693 192.28C398.453 188.024 397.921 184.452 396.097 181.564C394.425 178.676 391.537 177.232 387.433 177.232C383.329 177.232 379.681 178.676 376.489 181.564C373.297 184.452 371.321 188.024 370.561 192.28C369.649 196.688 370.105 200.26 371.929 202.996C373.905 205.732 376.945 207.1 381.049 207.1C385.153 207.1 388.725 205.732 391.765 202.996C394.805 200.26 396.781 196.688 397.693 192.28Z" fill="white"/>
<path d="M1431.02 133.9C1424.64 133.9 1421.45 133.127 1421.45 131.58C1421.45 129.84 1424.64 128.97 1431.02 128.97C1437.4 128.97 1440.59 129.84 1440.59 131.58C1440.59 133.127 1437.4 133.9 1431.02 133.9ZM1407.24 214.52C1407.24 213.36 1407.92 211.813 1409.27 209.88C1410.62 207.947 1411.88 206.11 1413.04 204.37C1414.2 202.437 1415.07 200.6 1415.65 198.86C1416.42 197.12 1416.04 195.767 1414.49 194.8C1412.94 193.833 1410.14 193.35 1406.08 193.35C1402.79 193.35 1400.38 192.963 1398.83 192.19C1397.48 191.417 1396.41 189.87 1395.64 187.55C1394.48 184.843 1392.84 183.2 1390.71 182.62C1388 181.847 1378.34 181.267 1361.71 180.88C1348.56 180.687 1339.96 180.3 1335.9 179.72C1332.03 179.14 1330.1 178.077 1330.1 176.53C1330.1 174.983 1333.39 174.017 1339.96 173.63C1346.73 173.243 1362.48 173.05 1387.23 173.05H1444.07L1444.94 179.14C1445.33 182.427 1444.07 188.42 1441.17 197.12C1438.27 205.82 1436.72 210.847 1436.53 212.2C1435.76 215.293 1431.99 221.19 1425.22 229.89C1418.45 238.59 1412.94 244.68 1408.69 248.16C1404.05 251.833 1397.48 255.797 1388.97 260.05C1380.66 264.497 1375.24 266.817 1372.73 267.01C1369.44 267.01 1366.83 267.977 1364.9 269.91C1362.97 271.843 1353.11 272.81 1335.32 272.81C1317.53 272.81 1305.84 271.747 1300.23 269.62C1278.58 261.307 1261.56 250.48 1249.19 237.14C1236.82 223.8 1228.02 206.787 1222.8 186.1C1216.23 160.193 1220.48 132.74 1235.56 103.74C1239.62 96.2 1246 88.4667 1254.7 80.54C1263.59 72.42 1273.07 65.75 1283.12 60.53L1301.39 51.25L1331.84 50.96C1347.31 50.7667 1358.04 51.3467 1364.03 52.7C1370.22 54.0533 1378.72 57.5333 1389.55 63.14C1394.38 65.6533 1400.09 69.6167 1406.66 75.03C1413.43 80.4433 1416.81 83.9233 1416.81 85.47C1416.81 87.0167 1418.36 88.95 1421.45 91.27C1424.74 93.3967 1426.38 95.04 1426.38 96.2C1426.38 96.9733 1427.93 99.8733 1431.02 104.9C1434.11 109.733 1435.85 113.793 1436.24 117.08C1436.63 119.787 1436.34 121.527 1435.37 122.3C1434.6 123.073 1432.08 123.557 1427.83 123.75C1421.84 124.33 1416.91 122.88 1413.04 119.4C1409.17 115.92 1407.24 113.31 1407.24 111.57C1407.24 110.217 1404.63 106.833 1399.41 101.42C1394.19 96.0067 1388.49 90.7867 1382.3 85.76C1378.43 82.4733 1370.8 78.9933 1359.39 75.32C1348.18 71.6467 1339.77 69.81 1334.16 69.81C1327.78 69.81 1318.6 71.84 1306.61 75.9C1294.82 79.96 1287.47 83.5367 1284.57 86.63C1281.86 89.53 1279.74 90.98 1278.19 90.98C1274.71 90.98 1269.39 95.91 1262.24 105.77C1255.09 115.63 1250.06 125.007 1247.16 133.9C1245.03 139.7 1243.78 148.98 1243.39 161.74C1243 174.307 1243.68 182.33 1245.42 185.81C1246.77 188.323 1249.29 193.833 1252.96 202.34C1258.95 216.067 1269.88 227.957 1285.73 238.01C1301.78 247.87 1317.73 252.8 1333.58 252.8C1338.61 252.8 1344.99 251.737 1352.72 249.61C1360.65 247.677 1367.61 245.26 1373.6 242.36C1379.01 239.653 1385.97 234.82 1394.48 227.86C1402.99 220.707 1407.24 216.26 1407.24 214.52Z" fill="url(#paint1_linear_212_384)"/>
<path d="M464.96 126.668H469.976L483.656 238.16L542.48 126.668H547.496L558.896 238.16L620 126.668H625.016L559.58 245H555.476L543.848 132.596L484.34 245H480.008L464.96 126.668ZM666.571 247.28C660.187 247.28 654.411 245.988 649.243 243.404C644.075 240.82 639.591 237.324 635.791 232.916C632.143 228.356 629.331 223.112 627.355 217.184C625.379 211.104 624.391 204.644 624.391 197.804C624.391 188.228 626.367 179.032 630.319 170.216C634.271 161.4 639.439 153.648 645.823 146.96C652.359 140.12 659.655 134.724 667.711 130.772C675.919 126.82 684.203 124.844 692.563 124.844C698.795 124.844 704.495 126.136 709.663 128.72C714.831 131.304 719.239 134.876 722.887 139.436C726.535 143.996 729.347 149.316 731.323 155.396C733.451 161.476 734.515 167.936 734.515 174.776C734.515 184.2 732.539 193.32 728.587 202.136C724.635 210.8 719.467 218.476 713.083 225.164C706.699 231.852 699.403 237.248 691.195 241.352C683.139 245.304 674.931 247.28 666.571 247.28ZM667.255 242.72C674.855 242.72 682.379 240.896 689.827 237.248C697.427 233.448 704.191 228.508 710.119 222.428C716.047 216.196 720.835 209.052 724.483 200.996C728.131 192.788 729.955 184.276 729.955 175.46C729.955 169.076 728.967 163.148 726.991 157.676C725.167 152.052 722.583 147.188 719.239 143.084C715.895 138.828 711.867 135.484 707.155 133.052C702.443 130.62 697.275 129.404 691.651 129.404C684.051 129.404 676.527 131.304 669.079 135.104C661.631 138.752 654.943 143.768 649.015 150.152C643.087 156.384 638.223 163.604 634.423 171.812C630.775 180.02 628.951 188.532 628.951 197.348C628.951 203.58 629.863 209.508 631.687 215.132C633.511 220.604 636.095 225.392 639.439 229.496C642.935 233.6 646.963 236.868 651.523 239.3C656.235 241.58 661.479 242.72 667.255 242.72ZM774.311 126.668H778.871L772.487 157.22C778.719 147.948 785.863 140.804 793.919 135.788C801.975 130.62 810.107 127.656 818.315 126.896C819.075 126.744 819.759 126.668 820.367 126.668C821.127 126.668 821.887 126.668 822.647 126.668L821.735 131.228C810.943 131.684 800.911 135.332 791.639 142.172C782.519 149.012 775.223 158.36 769.751 170.216L753.791 245H749.231L774.311 126.668ZM861.856 247.28C855.168 247.28 849.164 245.912 843.844 243.176C838.524 240.288 834.04 236.564 830.392 232.004C826.744 227.292 823.932 221.896 821.956 215.816C820.132 209.736 819.22 203.428 819.22 196.892C819.22 187.772 821.044 178.956 824.692 170.444C828.34 161.78 833.204 154.104 839.284 147.416C845.516 140.576 852.66 135.104 860.716 131C868.772 126.896 877.132 124.844 885.796 124.844C890.964 124.844 895.6 125.68 899.704 127.352C903.808 128.872 907.456 131 910.648 133.736C913.84 136.32 916.652 139.436 919.084 143.084C921.516 146.58 923.644 150.304 925.468 154.256L941.428 78.56H945.988L910.648 245H906.088L911.332 220.376C908.14 224.328 904.568 227.976 900.616 231.32C896.664 234.512 892.484 237.324 888.076 239.756C883.82 242.188 879.412 244.012 874.852 245.228C870.444 246.596 866.112 247.28 861.856 247.28ZM862.768 242.72C867.176 242.72 872.04 241.732 877.36 239.756C882.832 237.78 888.076 235.196 893.092 232.004C898.108 228.66 902.516 224.784 906.316 220.376C910.268 215.968 912.928 211.332 914.296 206.468L923.416 163.832C922.96 159.12 921.516 154.712 919.084 150.608C916.652 146.352 913.688 142.704 910.192 139.664C906.696 136.472 902.744 133.964 898.336 132.14C893.928 130.316 889.444 129.404 884.884 129.404C876.524 129.404 868.62 131.456 861.172 135.56C853.724 139.512 847.188 144.68 841.564 151.064C836.092 157.448 831.76 164.668 828.568 172.724C825.376 180.628 823.78 188.532 823.78 196.436C823.78 202.668 824.692 208.596 826.516 214.22C828.34 219.844 830.924 224.784 834.268 229.04C837.764 233.144 841.868 236.488 846.58 239.072C851.444 241.504 856.84 242.72 862.768 242.72ZM996.41 247.28C991.394 247.28 986.758 246.52 982.502 245C978.398 243.632 974.674 241.732 971.33 239.3C968.138 236.716 965.326 233.828 962.894 230.636C960.614 227.292 958.79 223.872 957.422 220.376L952.178 245H947.618L982.958 78.56H987.518L971.558 154.256C979.31 145.592 987.442 138.524 995.954 133.052C1004.47 127.58 1013.59 124.844 1023.31 124.844C1030.31 124.844 1036.31 126.288 1041.33 129.176C1046.49 132.064 1050.75 135.788 1054.09 140.348C1057.59 144.908 1060.17 150.152 1061.85 156.08C1063.52 161.856 1064.35 167.708 1064.35 173.636C1064.35 183.212 1062.38 192.408 1058.43 201.224C1054.47 210.04 1049.31 217.868 1042.92 224.708C1036.54 231.548 1029.24 237.02 1021.03 241.124C1012.98 245.228 1004.77 247.28 996.41 247.28ZM996.866 242.72C1004.92 242.72 1012.67 240.744 1020.12 236.792C1027.72 232.84 1034.41 227.672 1040.19 221.288C1046.11 214.752 1050.83 207.38 1054.32 199.172C1057.82 190.964 1059.57 182.528 1059.57 173.864C1059.57 168.24 1058.73 162.768 1057.06 157.448C1055.39 151.976 1052.95 147.188 1049.76 143.084C1046.57 138.98 1042.62 135.712 1037.91 133.28C1033.19 130.696 1027.8 129.404 1021.72 129.404C1016.55 129.404 1011.61 130.316 1006.9 132.14C1002.19 133.812 997.702 136.168 993.446 139.208C989.19 142.096 985.086 145.516 981.134 149.468C977.182 153.268 973.382 157.296 969.734 161.552L959.246 212.852C960.918 222.124 965.25 229.42 972.242 234.74C979.234 240.06 987.442 242.72 996.866 242.72ZM1116.15 78.56H1120.71L1085.37 245H1080.81L1116.15 78.56ZM1169.33 247.28C1162.94 247.28 1157.17 245.988 1152 243.404C1146.83 240.82 1142.35 237.324 1138.55 232.916C1134.9 228.356 1132.09 223.112 1130.11 217.184C1128.14 211.104 1127.15 204.644 1127.15 197.804C1127.15 188.228 1129.12 179.032 1133.08 170.216C1137.03 161.4 1142.2 153.648 1148.58 146.96C1155.12 140.12 1162.41 134.724 1170.47 130.772C1178.68 126.82 1186.96 124.844 1195.32 124.844C1201.55 124.844 1207.25 126.136 1212.42 128.72C1217.59 131.304 1222 134.876 1225.64 139.436C1229.29 143.996 1232.1 149.316 1234.08 155.396C1236.21 161.476 1237.27 167.936 1237.27 174.776C1237.27 184.2 1235.3 193.32 1231.34 202.136C1227.39 210.8 1222.22 218.476 1215.84 225.164C1209.46 231.852 1202.16 237.248 1193.95 241.352C1185.9 245.304 1177.69 247.28 1169.33 247.28ZM1170.01 242.72C1177.61 242.72 1185.14 240.896 1192.58 237.248C1200.18 233.448 1206.95 228.508 1212.88 222.428C1218.8 216.196 1223.59 209.052 1227.24 200.996C1230.89 192.788 1232.71 184.276 1232.71 175.46C1232.71 169.076 1231.72 163.148 1229.75 157.676C1227.92 152.052 1225.34 147.188 1222 143.084C1218.65 138.828 1214.62 135.484 1209.91 133.052C1205.2 130.62 1200.03 129.404 1194.41 129.404C1186.81 129.404 1179.28 131.304 1171.84 135.104C1164.39 138.752 1157.7 143.768 1151.77 150.152C1145.84 156.384 1140.98 163.604 1137.18 171.812C1133.53 180.02 1131.71 188.532 1131.71 197.348C1131.71 203.58 1132.62 209.508 1134.44 215.132C1136.27 220.604 1138.85 225.392 1142.2 229.496C1145.69 233.6 1149.72 236.868 1154.28 239.3C1158.99 241.58 1164.24 242.72 1170.01 242.72Z" fill="white"/>
<defs>
<linearGradient id="paint0_linear_212_384" x1="0" y1="279" x2="228" y2="51" gradientUnits="userSpaceOnUse">
<stop stop-color="#FF9900"/>
<stop offset="1" stop-color="#FF002E"/>
</linearGradient>
<linearGradient id="paint1_linear_212_384" x1="1217" y1="310" x2="1499.66" y2="84.8497" gradientUnits="userSpaceOnUse">
<stop stop-color="#FF9900"/>
<stop offset="1" stop-color="#FF002E"/>
</linearGradient>
</defs>
</svg>
