<svg id="Layer_1" data-name="Layer 1" xmlns="http://www.w3.org/2000/svg" viewBox="0 0 64 64"><defs><style>.cls-1{fill:#fff;}</style></defs><title>blender-3d</title><path class="cls-1" d="M34.34,0A2.52,2.52,0,0,0,32,2.66a2.61,2.61,0,0,0,.64,1.63L44.79,18.51A26.58,26.58,0,0,0,39.62,18H9.85a2.56,2.56,0,0,0-.07,5.12H23.94l-.25.17a2.58,2.58,0,0,0-.71.47L.83,44.17a2.64,2.64,0,0,0-.21,3.62A2.41,2.41,0,0,0,4.1,48L15,37.92a21.89,21.89,0,0,0-.24,3c0,12.71,11,23,24.61,23S64,53.68,64,41a22.31,22.31,0,0,0-7.82-16.8,2.27,2.27,0,0,0-.18-.25L36.3.89A2.42,2.42,0,0,0,34.34,0Zm5,23.06c8.65,0,17.15,5.56,17.24,15.35.07,8.86-7.08,15.36-17.24,15.35-9.8,0-17.18-6.31-17.23-15.35C22.1,28.93,29.57,23.05,39.38,23.06ZM39,28.18c-5.44,0-9.84,4-9.84,9s4.4,9,9.84,9,9.85-4,9.85-9S44.41,28.18,39,28.18Z" transform="translate(0 0)"/></svg>