<svg height="85.371" viewBox="0 0 84.958 85.371" width="84.958" xmlns="http://www.w3.org/2000/svg" xmlns:xlink="http://www.w3.org/1999/xlink"><linearGradient id="a" gradientUnits="userSpaceOnUse" x1="2.6802" x2="13.4062" y1="72.4238" y2="83.1499"><stop offset="0" stop-color="#fbb03b"/><stop offset="1" stop-color="#ed1e79"/></linearGradient><path d="m-19.497-5.002h125.424v99.99h-125.424z" fill="none" transform="matrix(.7071 -.7071 .7071 .7071 -19.1576 43.736)"/><path d="m76.312 21.374c1.604 1.952 2.996 3.965 4.176 6.041 1.182 2.076 2.133 4.257 2.854 6.544s1.18 4.748 1.379 7.383c.473 5.893-.348 11.547-2.461 16.967-2.113 5.419-5.383 10.342-9.807 14.767-2.76 2.759-5.762 5.04-9.006 6.843-3.243 1.802-6.605 3.139-10.086 4.008-3.481.871-7.004 1.274-10.572 1.213-3.566-.063-7.059-.561-10.478-1.492s-6.712-2.313-9.882-4.139c-3.17-1.828-6.071-4.059-8.707-6.693-2.759-2.76-5.078-5.76-6.954-9.006-1.876-3.244-3.3-6.605-4.27-10.087-.97-3.479-1.473-7.016-1.51-10.608-.038-3.593.392-7.13 1.286-10.61.895-3.479 2.269-6.855 4.121-10.125 1.851-3.268 4.182-6.308 6.99-9.117 2.76-2.759 5.693-5.07 8.801-6.936 3.107-1.863 6.334-3.287 9.676-4.27 3.345-.982 6.781-1.523 10.311-1.622 3.529-.099 7.098.236 10.703 1.007l-2.052 8.018c-6.04-1.218-11.802-1.087-17.283.392-5.481 1.48-10.484 4.48-15.009 9.005-2.163 2.163-3.947 4.544-5.352 7.141-1.404 2.598-2.423 5.308-3.057 8.129-.635 2.823-.908 5.681-.82 8.577.086 2.896.535 5.756 1.342 8.576.809 2.822 1.957 5.525 3.449 8.11 1.492 2.586 3.318 4.96 5.482 7.122 2.213 2.213 4.623 4.078 7.233 5.594 2.61 1.518 5.32 2.673 8.129 3.468 2.81.796 5.673 1.226 8.595 1.286 2.922.063 5.793-.248 8.614-.932s5.544-1.752 8.166-3.207c2.622-1.453 5.053-3.3 7.29-5.537 2.76-2.76 4.953-5.849 6.582-9.267 1.627-3.417 2.573-6.923 2.834-10.515.26-3.592-.187-7.16-1.343-10.703-1.156-3.542-3.127-6.829-5.91-9.862l-19.015 19.017-5.109-5.108 25.281-25.282c1.99 1.989 3.785 3.959 5.389 5.91z" fill="#fff"/><circle cx="8.042" cy="77.787" fill="url(#a)" r="7.584"/></svg>