<svg height="356.246" viewBox="0 0 710.638 356.246" width="710.638" xmlns="http://www.w3.org/2000/svg" xmlns:xlink="http://www.w3.org/1999/xlink"><linearGradient id="a"><stop offset="0" stop-color="#fcee21"/><stop offset="1" stop-color="#f09"/></linearGradient><linearGradient id="b" gradientUnits="userSpaceOnUse" x1="59.2021" x2="597.0217" xlink:href="#a" y1="51.8843" y2="362.3945"/><linearGradient id="c" gradientUnits="userSpaceOnUse" x1="83.3896" x2="621.2092" xlink:href="#a" y1="9.9897" y2="320.5"/><linearGradient id="d" gradientUnits="userSpaceOnUse" x1="84.2207" x2="622.0402" xlink:href="#a" y1="8.5503" y2="319.0605"/><linearGradient id="e" gradientUnits="userSpaceOnUse" x1="122.2231" x2="660.0427" xlink:href="#a" y1="-57.2715" y2="253.2388"/><linearGradient id="f" gradientUnits="userSpaceOnUse" x1="129.4927" x2="667.3122" xlink:href="#a" y1="-69.8628" y2="240.6475"/><linearGradient id="g" gradientUnits="userSpaceOnUse" x1="157.6309" x2="695.4504" xlink:href="#a" y1="-118.5996" y2="191.9106"/><linearGradient id="h" gradientUnits="userSpaceOnUse" x1="174.2363" x2="712.0558" xlink:href="#a" y1="-147.3613" y2="163.1489"/><linearGradient id="i" gradientUnits="userSpaceOnUse" x1="19.3125" x2="557.132" xlink:href="#a" y1="120.9741" y2="431.4844"/><linearGradient id="j" gradientUnits="userSpaceOnUse" x1="44.8174" x2="582.6368" xlink:href="#a" y1="76.7993" y2="387.3095"/><linearGradient id="k" gradientUnits="userSpaceOnUse" x1="61.0122" x2="598.8317" xlink:href="#a" y1="48.7485" y2="359.2588"/><linearGradient id="l" gradientUnits="userSpaceOnUse" x1="75.6953" x2="613.5148" xlink:href="#a" y1="23.3174" y2="333.8276"/><linearGradient id="m" gradientUnits="userSpaceOnUse" x1="89.8447" x2="627.6642" xlink:href="#a" y1="-1.1899" y2="309.3203"/><linearGradient id="n" gradientUnits="userSpaceOnUse" x1="123.103" x2="660.9225" xlink:href="#a" y1="-58.7954" y2="251.7148"/><path d="m125.848 34.69c-22.8 77.399-79.999 142.599-124.598 121.998-1.6-1.4-1.8-3.2.2-2.6 58.599 18.2 108.398-83.799 119.598-124.198.8-3 1-7.2 1.4-9.6-.2-.2 0-.4 0-.6.6-2.8 7.2 1.2 8 5 4.6 27.799 6.8 65.399 15.2 99.798 13.8-34.2 51.399-116.198 59.399-122.998 3.2-4.2 8.8 1.4 8.6 5.4-3 31-5 54.999-5 79.999 0 5 0 9.8.2 14.8 1.2 39.399 7.4 68.199 22.399 72.999 1.2.399 1.6 2.601-.8 2.601-22.6 0-27.4-46.4-28.8-74.399-.2-5.2-.4-10.6-.4-16 0-24.6 2.4-51.599 4.8-75.399-10 15.6-47.599 96.599-56.999 122.598.2 5-4.4 9.6-6.4 7.8-8-36.6-13.799-72.599-16.799-107.199z" fill="url(#b)"/><path d="m226.848 120.089c-.8-2.4-1.2-5-1.2-7.6 0-3.2.6-6.6 2.2-9.4 1-2 2.2-3.8 4-4.4 1.6-.4 3.8.6 5.4 2.4 1.6 1.6 1.2 2.8.2 3.4-2.8 1.8-4.6 7.6-4.6 12.8 0 3.6.8 6.8 3 8.2 8.2 5.6 21.6-15.6 23.2-22.8.6-2.8 7.6.8 7.2 3.8-.2 1.4-.4 4.6-.4 8.2.8 4.8 2.2 9.6 7.8 10.2 13.8-.6 25.8-11.2 32.399-17.8 1.8-2.4 1.6 3.6-.8 7.4-4 6.2-14.2 17-28 16.2-7.8 0-14-4.8-16.8-11.4-4 5.8-9.8 12.8-18 12.8-6.599-.001-13.399-5.2-15.599-12z" fill="url(#c)"/><path d="m297.246 183.488c3-15.4 19-34.2 39.199-49.199l5-3.6-.2-.8-.4-16.4v-1l-.6.4c-1.8 2.2-4.2 4.6-6.8 6.8-3.4 2.8-6.8 5.4-10.2 7-1.8.6-4 1.4-6.6 1.4-1.8 0-3.8-.4-5.8-1.4-.8-.4-1.4-.8-1.8-1.2-2.4-1.8-4.4-3.8-5.8-5.8-1.8-2.6-2.6-5.2-2.6-7.6 0-2.8 1-5.6 3-7.6 3.4-2.6 7.2-4.6 13.8-4.6 5.2 0 11.8 1.2 19.2 4l.2.2.4-.2c1.4-1.8 2.2-3.4 2.8-4.2 1.2-2 6.8 1.2 7 4 .2.4 1.2 9.8 1.4 21.4v.8l.2-.2c5.4-3.2 31.6-15.2 35.399-12.6 2 1.4 1.6 2 0 2.4-8 2.4-21.2 9.6-29.599 14.6l-5.8 4-.2 2.4-.6 18.6c-1.6 25.199-8 51.399-25.399 54.999-5 1-12-1-17.6-6.6-5.4-5.6-8.6-12.801-7.6-20zm43.599-44-4.2 3.6c-17 14-29.8 30.999-32 44.399-1.2 6.199 1.8 11.199 4.2 14 3 2.8 6.8 4.399 9.2 3.8 17.4-3.6 23.2-39.999 22.8-65.799zm-23.399-18.599c2.8-1.4 6.4-3.8 9.6-6.6l4.4-4.2 2-2.2-1.4-.4c-3.8-1-7.2-1.6-10.2-1.6-5.4 0-9.4 1.6-11.6 3.8-1.6 1.8-2.2 3.6-2.2 5.6s.8 4 2 5.6l1.4 1s.4.2 1.6.2c1.4 0 2.8-.401 4.4-1.2z" fill="url(#d)"/><path d="m380.643 124.688c0-11.6.2-22.399.4-30.199.2-9.4.6-21.2 1.2-33.399-16.6 1.4-32.2 2.6-48.199 5.4-3.8.6-8-4.6-4.6-5.4 14.2-2.6 28.399-4.2 52.999-6.2.8-15.6 1.8-31.399 2.6-43.799-.2-3.2 7.6-2 8.2 2-1.4 10-2.6 25.6-3.4 41.199 1.8 0 3.8-.2 5.8-.4 17-1.2 39.8-3 59.399-3 11.399 0 21.8.6 28.999 2.2 1.801.8 3.801 2.8 4.601 4 .2 1.6-.8 2.4-2.4 2.2-9-1.8-20.199-2.4-32.199-2.4-21.399 0-44.8 2-59.999 3.2-1.6.2-3 .4-4.6.4l-1.4 33.6c-.2 12.8-.8 31.599-.8 49.799 0 20.4.8 40 3.4 49.399.6 4.601-5.6.399-7-3.8-2.201-7-3.001-38-3.001-64.8z" fill="url(#e)"/><path d="m404.84 117.889c0-4.4 2.2-8.8 7.2-12.2 5.399-3.6 12.199-5.4 19.199-5.4 5.601 0 11.2 1.2 16.2 3.4h.2l3.399-4.6c1.2-2.2 8 2.2 6.601 4.6-1 3-2.801 6.6-3.2 10.4-.2 3.4.8 7.4 4.399 8.4 10.2 2 27.399-8.2 34.6-16.2 3.4-3.4 6.4 1.6-4.6 12.6-5 5-18.8 11.4-27.2 9.4-6.6-1.6-11.6-5.4-14.199-12.6-5.6 5-18.8 15.2-29.399 15.2-2.601 0-5-.6-7.2-2-4-3-6-6.8-6-11zm39.199-10.2c-2-.6-4.8-1-7.8-1-10 0-23.199 3.8-25.399 13-.6 2.4.6 4.6 3.6 4.8 9.6-1.2 22.599-9.4 29.599-16.8z" fill="url(#f)"/><path d="m494.438 135.289c-.6-.6-.6-1-.6-1.2-.8-1.4-1.2-4-1.8-7.2l-1.601-12.8c-.399-10.2-.8-23-.8-36v-6.4c0-23.8 1-47.399 3.601-54.599.6-1 2.6-1 4.6.2 1.6 1.2 2.8 3.2 2.2 4.4-2.4 7-3.2 33.399-3.2 59.599 0 13 .2 25.799 1.2 35.999 3.399-8.2 16.199-24.799 24.999-23.199 1.801.2 4.2 1.2 5.8 2.8l1 .8c4.2 3.8 5.601 8.6 5.601 13.2 0 3-.601 5.8-1.4 8.2l-1.399 3.2c9.8-1.6 25.799-10.6 32.799-16.8 2-2 .801 4.2-1 6.8-7.399 10-21.6 17.6-39.199 17.799h-1.6l-.8.2c-3.2.6-14.8 0-19.2-3l-.4-.2-.6 2-1.2 5.6c.2 1.4-.199 2.4-.399 3-.2 0-.4.4-.8.6-.2 0-1.2.6-3.2-.4-1.401-.999-2.602-2.4-2.602-2.599zm16.401-11c9.199 0 17.199-8.2 17.199-17.6 0-2.8-.6-4.8-1.8-6l-.6-.8h-.4c-6.8 2.2-12 10.2-20.8 23l.4.2c2.001.8 4.001 1.2 6.001 1.2z" fill="url(#g)"/><path d="m637.638 131.688c-7.2 0-13.6-.6-18.6-1.8-6.6-1.8-18-10.2-18-16v-.2c-7 5.2-16 13.6-25.999 13.6-5 0-10.601-3.2-13.4-7.6-1.399-2.4-2-4.6-2-6.8 0-3.4 1.601-6.6 5.2-9.4 3.8-3 10.2-5 18.199-5 4.601 0 10 .8 15.601 2.4l2.8.8c3-4 3.399-4.2 3.399-4.4 1.2-2.2 8 2.2 7 4.6l-.399.6c-2 3.2-3 7-3 10.4 0 4.4 1.8 8.2 6.199 9.6 4.2 1.2 10.8 1.6 19 1.6 23.6 0 57.999-4 66.999-6.6 1.4-.4 8.8-2.2 9.8-.6 1.6 1.6-6.8 4.8-8.2 5.2-14 4.6-42.599 9.6-64.599 9.6zm-40.4-25.599.4-.4-2.4-.4c-2.6-.6-5.4-.8-8.2-.8-5.6 0-11.399 1.2-15.999 4.4-2.801 1.8-5 5.6-5 8.4 0 2.2 1.399 4 5 4 8.199 0 20.6-9 26.199-15.2z" fill="url(#h)"/><path d="m204.346 255.489c27.2-5.2 63.599-9.999 97.798-9.999 3.8 0 7.4 0 11.6.199 1.8 0 3.8 1.2 5 2.801.8 1.799.2 3-1.2 3.199-3.4 0-7-.199-10.6-.199s-7.2.199-10.8.199c-.2.2-.2.4-.2.4 1.4 6.199-.2 14.199-3.2 22.799l-.6.601-.4 3c-.6 14.8-1.8 27.999-1.8 41.8 0 10.799.8 21.799 3.2 34.398.2 1.4-1.2 2-3 1.201-2.2-.801-4-2.4-4.2-4-2-10.4-3-25-3-40.199 0-6.602.2-13.201.6-19.601l-1.2 1.8c-13.2 17.6-36.799 36.199-65.399 37-38.199 1-66.399-28.6-64.399-80.999 1.8-45.199 35.399-96.999 84.999-99.799 16-.8 31 4.4 40.6 18.6 3.2 4.799 5 11 5 17.399 0 10-4.4 21-14.8 29.2-5.8 4.8-11.4 2.8-8.4.399 11.8-9.399 16.4-21.6 16.4-31.799 0-4-.8-7.8-2-10.8-4.8-12-17.6-16.4-31-16.4-2 0-3.8 0-5.8.2-40.999 4.2-74.799 49.599-77.599 92.599-.2 2.799-.2 5.6-.2 8.398 0 40 20.2 67.4 53 67.199 30.799-.199 59.999-27.799 71.199-50.998l1.2-2.801h.2c.2-3.6.6-6.8 1-9.6.4-4 1-7.4 1.4-9.8-27.6 1.399-55.999 5.399-77.999 9.8-1.6.199-4.2-1.2-5.4-2.6-1.6-1.597-1.6-3.197 0-3.597z" fill="url(#i)"/><path d="m325.945 267.888c0-4.399 2.2-8.799 7.2-12.199 5.4-3.6 12.2-5.4 19.2-5.4 5.6 0 11.2 1.201 16.2 3.4h.2l3.4-4.6c1.2-2.2 8 2.199 6.6 4.6-1 3-2.8 6.6-3.2 10.4-.2 3.399.8 7.399 4.4 8.399 10.2 2 27.399-8.2 34.6-16.2 3.399-3.399 6.399 1.6-4.601 12.6-5 5-18.799 11.4-27.199 9.4-6.6-1.6-11.6-5.4-14.2-12.6-5.6 5-18.8 15.199-29.399 15.199-2.6 0-5-.6-7.2-2-4.001-2.999-6.001-6.798-6.001-10.999zm39.2-10.199c-2-.6-4.8-1-7.8-1-10 0-23.2 3.8-25.4 13-.6 2.4.6 4.6 3.6 4.8 9.6-1.2 22.6-9.4 29.6-16.8z" fill="url(#j)"/><path d="m413.543 248.49c0-1.4 2-1.4 4-.4 1.801 1 3 3 3 4.199l-.199 7.801c4.999-6.4 19.799-18 30.799-16.2 4.601.8 7.4 5 6 6.601-2.8 3.199-5.6 1.999-5.399.399l.199-1.601c-9.999-.199-26.6 12-31.399 25.801-.6 1.6-.6 2.799-1.399 8.6.2 2.6-6.4 0-7.2-3-.801-1.802-1.202-7.001 1.598-32.2z" fill="url(#k)"/><path d="m496.143 261.089c.8 2.6 1 5.6.4 8.6-1.801 10-10 15-19.2 14.399-7.399-.399-12.399-6.6-13.399-12.2-1.4-8.399 3.8-17.999 8.399-19.6.4 0 .601-.199 1-.199.8-2.801 2.2-5 6.2-4.801 5.399.801 9.8 3.4 12.8 7 5 .601 10.2.801 14.8.801 9.399 0 17.199-.801 19-.801 5.8-.199 4.399 2.4-.4 4-4.401 1.6-17.4 3.401-29.6 2.801zm-25.2 10.2c1 5.801 3.199 8 7 7.8 8.8-.399 13.199-11.8 9.999-18.999-4.6-.801-8.399-2-11.199-3.801l-.4.4c-2.6 2-6.4 9-5.4 14.6z" fill="url(#l)"/><path d="m552.74 261.089c.8 2.6 1 5.6.4 8.6-1.801 10-10 15-19.2 14.399-7.399-.399-12.399-6.6-13.399-12.2-1.4-8.399 3.8-17.999 8.399-19.6.4 0 .601-.199 1-.199.8-2.801 2.2-5 6.2-4.801 5.399.801 9.8 3.4 12.8 7 5 .601 10.2.801 14.8.801 9.399 0 17.199-.801 19-.801 5.8-.199 4.399 2.4-.4 4-4.401 1.6-17.4 3.401-29.6 2.801zm-25.199 10.2c1 5.801 3.199 8 7 7.8 8.8-.399 13.199-11.8 9.999-18.999-4.6-.801-8.399-2-11.199-3.801l-.4.4c-2.6 2-6.4 9-5.4 14.6z" fill="url(#m)"/><path d="m604.738 288.088c-7 0-13-3.399-17.399-10.399-6.2-10.2-8.2-26.4-8.2-42.8 0-8.2.4-16.6 1.2-23.999l-26.6.6c-3.6-.4-.6-6.4 3.2-6.4 6.6 0 14.8-.199 24.199-.399 1-8.8 2.4-15.8 3.4-19.601 5-18.599 12-30.399 23.399-30.999 12.6-.8 16.399 10.4 16.399 23.2 0 8.399-1.6 17.399-3.6 24.199l-.6 1.8c11.999-.6 24.6-1.399 37.399-2.399 13.199-1.2 24.799-1.6 31.799-3.4 1.4-.4 2.601-.4 2.2 1.2-3.6 5.399-21.6 6.8-31.199 7.8-15.4 1.6-29 2.4-42.199 3.199-5.4 16.4-13 34.2-30 51 2.4 13.199 6.6 21.8 12.8 22 14.4.399 34-24 38.8-32.6.6-1 2.8-.4 1.8 4.399-1.8 7.8-15.2 28-28.399 32.2-2.998 1-5.798 1.399-8.399 1.399zm-17.399-77.198c-1 8.399-1.4 16.799-1.4 24.398 0 6.801.4 13 1 18.801 13-14.4 19.6-29.8 24-44zm1-6.4c7.399-.2 15.8-.4 24.399-.8.4-1.8.8-3.601 1.4-5.399 1.8-7 3.199-15.4 3.199-22.601 0-9.399-2.199-16.6-8.399-16.2-9.399.6-14.2 12.6-17.399 27-1.4 6-2.4 12.2-3.2 18z" fill="url(#n)"/></svg>